# xmcd CD database file
#
# Track frame offsets:
#	150
#	17650
#	38350
#	57822
#	75262
#	92192
#	106365
#	124787
#	136757
#	156802
#	175465
#	194530
#
# Disc length: 2780 seconds
#
# Revision: 1
# Processed by: cddbd v1.5.1PL2 Copyright (c) Steve Scherf et al.
# Submitted via: jetAudio 5
#
DISCID=8e0ada0c
DTITLE=อิน'จีน (2002) - ที่พึ่งคนจน
DYEAR=1900
DGENRE=
TTITLE0=ที่พึ่งคนจน
TTITLE1=เขาพระวิหาร
TTITLE2=ผ้าป่าสามัคคี
TTITLE3=สงกรานต์บ้านเรา
TTITLE4=นกเขาครวญ
TTITLE5=ตัวล่อนจ้อน
TTITLE6=โอ่งลาดลี
TTITLE7=ลูกสาวใคร
TTITLE8=มาลีศรีตรัง
TTITLE9=เจ้าดอกลำดวน
TTITLE10=แอ่วเมืองเหนือ
TTITLE11=สาละวันสันติภาพ
EXTD=
EXTT0=
EXTT1=
EXTT2=
EXTT3=
EXTT4=
EXTT5=
EXTT6=
EXTT7=
EXTT8=
EXTT9=
EXTT10=
EXTT11=
PLAYORDER=
